<?xml version="1.0" encoding="utf-8"?>
<!-- Generator: Adobe Illustrator 16.0.0, SVG Export Plug-In . SVG Version: 6.00 Build 0)  -->
<!DOCTYPE svg PUBLIC "-//W3C//DTD SVG 1.1//EN" "http://www.w3.org/Graphics/SVG/1.1/DTD/svg11.dtd">
<svg version="1.1" id="Layer_1" xmlns="http://www.w3.org/2000/svg" xmlns:xlink="http://www.w3.org/1999/xlink" x="0px" y="0px"
	 width="80.004px" height="64.997px" viewBox="0 0 80.004 64.997" enable-background="new 0 0 80.004 64.997" xml:space="preserve">
<path d="M80.004,7.694L80.004,7.694L80.004,7.694 M55.391,0c-9.065,0-16.414,7.347-16.414,16.408c0,1.286,0.145,2.538,0.425,3.739
	C25.76,19.463,13.665,12.931,5.57,3.003c-1.413,2.423-2.222,5.242-2.222,8.249c0,5.693,2.898,10.715,7.302,13.658
	c-2.691-0.085-5.221-0.823-7.435-2.052c-0.001,0.068-0.001,0.137-0.001,0.206c0,7.951,5.658,14.583,13.167,16.09
	c-1.377,0.375-2.828,0.575-4.324,0.575c-1.058,0-2.086-0.103-3.088-0.294c2.089,6.519,8.151,11.263,15.333,11.396
	c-5.617,4.4-12.695,7.024-20.385,7.024c-1.325,0-2.631-0.078-3.916-0.229c7.264,4.655,15.892,7.372,25.161,7.372
	c30.191,0,46.701-25.003,46.701-46.686c0-0.711-0.016-1.419-0.047-2.123c3.207-2.313,5.99-5.204,8.19-8.494
	c-2.943,1.305-6.107,2.188-9.427,2.584c3.389-2.031,5.992-5.247,7.217-9.078c-3.171,1.88-6.684,3.246-10.423,3.982
	C64.377,1.993,60.111,0,55.391,0"/>
</svg>
