<?xml version="1.0" encoding="utf-8"?>
<!-- Generator: Adobe Illustrator 16.0.0, SVG Export Plug-In . SVG Version: 6.00 Build 0)  -->
<!DOCTYPE svg PUBLIC "-//W3C//DTD SVG 1.1//EN" "http://www.w3.org/Graphics/SVG/1.1/DTD/svg11.dtd">
<svg version="1.1" id="Layer_1" xmlns="http://www.w3.org/2000/svg" xmlns:xlink="http://www.w3.org/1999/xlink" x="0px" y="0px"
	 width="37px" height="79.999px" viewBox="0 0 37 79.999" enable-background="new 0 0 37 79.999" xml:space="preserve">
<path d="M7.997,15.494c0,2.016,0,11.014,0,11.014H0v13.468h7.997v40.023h16.428V39.977H35.45c0,0,1.032-6.458,1.533-13.52
	c-1.435,0-12.495,0-12.495,0s0-7.835,0-9.208c0-1.376,1.791-3.228,3.562-3.228c1.767,0,5.497,0,8.951,0C37,12.188,37,5.852,37,0
	c-4.611,0-9.857,0-12.17,0C7.591-0.001,7.997,13.481,7.997,15.494z"/>
</svg>
