<?xml version="1.0" encoding="utf-8"?>
<!-- Generator: Adobe Illustrator 16.0.0, SVG Export Plug-In . SVG Version: 6.00 Build 0)  -->
<!DOCTYPE svg PUBLIC "-//W3C//DTD SVG 1.1//EN" "http://www.w3.org/Graphics/SVG/1.1/DTD/svg11.dtd">
<svg version="1.1" id="Layer_1" xmlns="http://www.w3.org/2000/svg" xmlns:xlink="http://www.w3.org/1999/xlink" x="0px" y="0px"
	 width="80.041px" height="77.06px" viewBox="0 0 80.041 77.06" enable-background="new 0 0 80.041 77.06" xml:space="preserve">
<path fill-rule="evenodd" clip-rule="evenodd" d="M40.018,0C17.92,0,0,17.687,0,39.508C0,56.96,11.466,71.767,27.371,76.992
	c2.001,0.362,2.731-0.857,2.731-1.904c0-0.938-0.034-3.422-0.054-6.719c-11.132,2.387-13.481-5.296-13.481-5.296
	c-1.82-4.563-4.443-5.779-4.443-5.779c-3.634-2.451,0.275-2.401,0.275-2.401c4.016,0.279,6.13,4.071,6.13,4.071
	c3.57,6.037,9.367,4.294,11.647,3.283c0.364-2.553,1.397-4.294,2.541-5.282c-8.887-0.997-18.229-4.386-18.229-19.524
	c0-4.313,1.559-7.839,4.119-10.601c-0.411-1-1.785-5.016,0.392-10.455c0,0,3.36-1.062,11.005,4.05
	c3.192-0.876,6.616-1.314,10.019-1.33c3.399,0.015,6.823,0.454,10.019,1.33c7.64-5.112,10.994-4.05,10.994-4.05
	c2.183,5.439,0.81,9.456,0.398,10.455c2.565,2.762,4.114,6.288,4.114,10.601c0,15.176-9.357,18.516-18.273,19.494
	c1.437,1.22,2.717,3.631,2.717,7.316c0,5.281-0.049,9.542-0.049,10.837c0,1.057,0.721,2.286,2.752,1.9
	c15.889-5.234,27.345-20.032,27.345-37.479C80.041,17.687,62.121,0,40.018,0z"/>
</svg>
