<?xml version="1.0" encoding="utf-8"?>
<!-- Generator: Adobe Illustrator 16.0.0, SVG Export Plug-In . SVG Version: 6.00 Build 0)  -->
<!DOCTYPE svg PUBLIC "-//W3C//DTD SVG 1.1//EN" "http://www.w3.org/Graphics/SVG/1.1/DTD/svg11.dtd">
<svg version="1.1" id="Layer_1" xmlns="http://www.w3.org/2000/svg" xmlns:xlink="http://www.w3.org/1999/xlink" x="0px" y="0px"
	 width="80.011px" height="72.003px" viewBox="0 0 80.011 72.003" enable-background="new 0 0 80.011 72.003" xml:space="preserve">
<path d="M78.342,29.236H66.278V17.151c0-0.921-0.747-1.672-1.666-1.672h-3.435c-0.926,0-1.672,0.751-1.672,1.672v12.084H47.442
	c-0.919,0-1.669,0.751-1.669,1.675v3.441c0,0.924,0.75,1.672,1.669,1.672h12.064v12.089c0,0.924,0.746,1.672,1.672,1.672h3.435
	c0.919,0,1.666-0.748,1.666-1.672v-12.09h12.064c0.919,0,1.669-0.748,1.669-1.672v-3.441C80.011,29.985,79.261,29.236,78.342,29.236
	z"/>
<path d="M37.801,39.832c-2.538-1.8-4.845-4.442-4.884-5.252c0-1.477,0.132-2.183,3.438-4.764c4.275-3.353,6.629-7.76,6.629-12.419
	c0-4.224-1.288-7.976-3.48-10.611h1.702c0.351,0,0.696-0.11,0.977-0.315l4.746-3.444c0.59-0.424,0.837-1.178,0.612-1.868
	C47.315,0.47,46.678,0,45.954,0H24.729c-2.321,0-4.682,0.41-6.997,1.208C9.997,3.879,4.587,10.483,4.587,17.261
	c0,9.604,7.427,16.883,17.354,17.111c-0.194,0.762-0.293,1.512-0.293,2.247c0,1.48,0.375,2.882,1.145,4.236
	c-0.089,0-0.176,0-0.273,0c-9.462,0-18.004,4.651-21.245,11.574C0.43,54.228,0,56.049,0,57.845c0,1.747,0.447,3.43,1.327,5.009
	c2.037,3.653,6.413,6.486,12.329,7.982c3.052,0.773,6.333,1.167,9.74,1.167c3.062,0,5.98-0.396,8.678-1.178
	c8.413-2.446,13.852-8.651,13.852-15.813C45.924,48.141,43.719,44.025,37.801,39.832z M10.994,55.562
	c0-4.998,6.339-9.383,13.565-9.383h0.195c1.572,0.021,3.105,0.251,4.552,0.696c0.495,0.342,0.974,0.669,1.433,0.982
	c3.347,2.286,5.558,3.793,6.173,6.212c0.146,0.609,0.218,1.219,0.218,1.81c0,6.226-4.635,9.38-13.777,9.38
	C16.423,65.259,10.994,61.003,10.994,55.562z M17.569,8.329c1.129-1.292,2.608-1.975,4.269-1.975l0.188,0.003
	c4.691,0.138,9.18,5.377,10.005,11.676c0.464,3.526-0.319,6.843-2.089,8.863c-1.133,1.295-2.591,1.977-4.318,1.977c0,0,0,0-0.003,0
	h-0.077c-4.594-0.141-9.18-5.578-10-11.869C15.083,13.487,15.822,10.326,17.569,8.329z"/>
</svg>
