<?xml version="1.0" encoding="utf-8"?>
<!-- Generator: Adobe Illustrator 16.0.0, SVG Export Plug-In . SVG Version: 6.00 Build 0)  -->
<!DOCTYPE svg PUBLIC "-//W3C//DTD SVG 1.1//EN" "http://www.w3.org/Graphics/SVG/1.1/DTD/svg11.dtd">
<svg version="1.1" id="Layer_1" xmlns="http://www.w3.org/2000/svg" xmlns:xlink="http://www.w3.org/1999/xlink" x="0px" y="0px"
	 width="79.994px" height="80px" viewBox="0 0 79.994 80" enable-background="new 0 0 79.994 80" xml:space="preserve">
<path d="M17.365,80H0.283V22.857h17.081V80z M79.994,80H62.914V49.476c0-7.955-2.825-11.915-8.418-11.915
	c-4.437,0-7.251,2.215-8.663,6.658c0,7.21,0,35.781,0,35.781H28.752c0,0,0.228-51.429,0-57.143h13.484l1.04,11.429h0.356
	c3.503-5.714,9.096-9.587,16.77-9.587c5.838,0,10.559,1.626,14.162,5.72c3.631,4.096,5.432,9.593,5.432,17.316V80z"/>
<path d="M8.824,0c4.874,0,8.824,3.836,8.824,8.571s-3.95,8.571-8.824,8.571S0,13.306,0,8.571S3.95,0,8.824,0z"/>
</svg>
